<svg width="32" height="32" viewBox="0 0 32 32" fill="none" xmlns="http://www.w3.org/2000/svg">
<path d="M2 11.6C2 8.23969 2 6.55953 2.65396 5.27606C3.2292 4.14708 4.14708 3.2292 5.27606 2.65396C6.55953 2 8.23969 2 11.6 2H20.4C23.7603 2 25.4405 2 26.7239 2.65396C27.8529 3.2292 28.7708 4.14708 29.346 5.27606C30 6.55953 30 8.23969 30 11.6V20.4C30 23.7603 30 25.4405 29.346 26.7239C28.7708 27.8529 27.8529 28.7708 26.7239 29.346C25.4405 30 23.7603 30 20.4 30H11.6C8.23969 30 6.55953 30 5.27606 29.346C4.14708 28.7708 3.2292 27.8529 2.65396 26.7239C2 25.4405 2 23.7603 2 20.4V11.6Z" fill="#4087FC"/>
<path d="M12.1768 21L9.26349 10.8182H11.6151L13.3004 17.8928H13.3849L15.2443 10.8182H17.2578L19.1122 17.9077H19.2017L20.8871 10.8182H23.2386L20.3253 21H18.2273L16.2884 14.343H16.2088L14.2749 21H12.1768Z" fill="white"/>
</svg>
